<?xml version="1.0" encoding="UTF-8"?>
<svg width="375px" height="375px" version="1.2" viewBox="0 0 375 374.999991" xmlns="http://www.w3.org/2000/svg">
<g>
<path d="m235.57 371.25c-14.754 2.8711-29.059-6.8047-31.902-21.559l-1.2773-6.6719-2.9766-15.66 54.445-6.8047 1.9688 12.121 1.3008 6.6992c2.8477 14.754-6.8047 29.031-21.559 31.875" fill="#d88a1a"/>
<path d="m213.45 77.457l-66.832 12.922-2.5781-13.344c-3.5625-18.453 8.5039-36.316 26.957-39.879 18.449-3.5625 36.289 8.5078 39.852 26.957l2.6016 13.344" fill="#e8941b"/>
<path d="m362.75 312.02l-273.96 52.957 0.74609-1.6484c15.363-33.551 19.859-71.062 12.84-107.3l-9.8906-51.203c-11.406-59.047 27.195-116.18 86.242-127.58 59.047-11.406 116.18 27.195 127.58 86.242l11.75 60.773c5.8516 30.227 19.488 58.434 39.559 81.805l5.1328 5.9531" fill="#f9ac29"/>
<path d="m346.53 109.31l-13.371-2.6602c0.71875-3.5625 1.0625-7.1523 1.0625-10.688 0-30.016-24.402-54.445-54.445-54.445-0.82422 0-1.6484 0.054687-2.4727 0.13281l-0.90234 0.054687-0.85156-13.586 0.82422-0.054688c1.1172-0.078125 2.2578-0.16016 3.4023-0.16016 37.539 0 68.059 30.52 68.059 68.059 0 4.4414-0.42578 8.9062-1.3047 13.348" fill="#f03d40"/>
<path d="m373.22 114.62l-13.371-2.6602c1.0625-5.2891 1.5938-10.688 1.5938-16.004 0-45.035-36.633-81.668-81.668-81.668-1.25 0-2.4727 0.10547-3.6953 0.18359l-1.3828 0.082032-0.85156-13.586 1.2773-0.078125c1.543-0.10938 3.082-0.21484 4.6523-0.21484 52.559 0 95.281 42.75 95.281 95.281 0 6.1953-0.61328 12.496-1.8359 18.664" fill="#f03d40"/>
<path d="m319.82 103.96l-13.348-2.6602c0.34375-1.8086 0.53125-3.5898 0.53125-5.3438 0-15.02-12.203-27.223-27.223-27.223-0.74609 0.10547-1.1953 0.16016-1.6484 0.21484l-0.90234-13.613c1.1133-0.13281 1.832-0.21094 2.5508-0.21094 22.516 0 40.836 18.316 40.836 40.832 0 2.6328-0.26562 5.3164-0.79688 8.0039" fill="#f03d40"/>
<path d="m39.129 157.05c-2.2344-3.9062-4.0938-8.0273-5.4766-12.203-11.938-35.598 7.3359-74.227 42.906-86.137 1.1172-0.39844 2.2344-0.69141 3.3516-0.95703l0.74219-0.21094 3.5117 13.16-0.85156 0.21094c-0.79688 0.21484-1.5938 0.42578-2.418 0.69141-28.473 9.543-43.895 40.438-34.348 68.91 1.1133 3.3477 2.6055 6.6445 4.4102 9.8086l-11.828 6.7266" fill="#f03d40"/>
<path d="m15.52 170.61c-3.1367-5.4766-5.7148-11.246-7.6836-17.121-8.082-24.141-6.3008-49.98 5.0508-72.738 11.355-22.781 30.895-39.797 55.031-47.879 1.543-0.50391 3.0586-0.90234 4.6016-1.3008l1.1445-0.29297 3.4805 13.16-1.1953 0.28906c-1.25 0.34766-2.4727 0.66797-3.6953 1.0664-20.684 6.9375-37.461 21.48-47.164 41.02-9.7305 19.516-11.27 41.66-4.3594 62.344 1.6758 5.0508 3.9102 9.9961 6.5938 14.699l-11.805 6.7539" fill="#f03d40"/>
<path d="m62.762 143.52c-1.3555-2.3398-2.4727-4.8125-3.3242-7.3398-7.125-21.32 4.4141-44.527 25.762-51.652 0.69141-0.24219 1.4102-0.39844 2.1016-0.53125l3.9062 13.078c-0.44922 0.10547-0.92969 0.21484-1.3828 0.29297-14.516 4.8125-22.223 20.285-17.465 34.508 0.55859 1.6484 1.3047 3.2969 2.207 4.8906l-11.805 6.7539" fill="#f03d40"/>
<path d="m137.02 331.13l-11.328-7.5469c7.7656-11.645 10.531-25.629 7.793-39.375l-1.9961-9.9688 13.348-2.6602 1.9922 9.9727c3.457 17.277-0.027344 34.906-9.8086 49.578" fill="#f9bf54"/>
</g>
</svg>
